# xmcd
#
# Track frame offsets:
#	150
#	17250
#	31442
#	44012
#	59764
#	70830
#	88250
#	103827
#	117327
#	134317
#
# Disc length: 2018 seconds
#
# Revision: 2
# Processed by: cddbd v1.5PL3 Copyright (c) Steve Scherf et al.
# Submitted via: audiograbber 1.82.02
#
DISCID=8f07e00a
DTITLE=Various Artist - Honky Tonk Super Hits
DYEAR=1996
DGENRE=Country
TTITLE0=Joe Diffie - Prop Me Up Beside The Jukebox (If I Die)
TTITLE1=Asleep at the Wheel - House Of Blue Lights
TTITLE2=Rick Trevino - Honky Tonk Crowd
TTITLE3=Doug Stone - A Jukebox With A Country Song
TTITLE4=Vern Gosdin - Set 'Em Up Joe
TTITLE5=Marty Stuart - Honky Tonker
TTITLE6=Charlie Daniels Band - Boogie Woogie Fiddle Country Blues
TTITLE7=Doug Stone - Warning Labels
TTITLE8=George Jones and James Taylor - Bartenders Blues
TTITLE9=Joe Diffie - Honky Tonk Attitude
EXTD=
EXTT0=
EXTT1=
EXTT2=
EXTT3=
EXTT4=
EXTT5=
EXTT6=
EXTT7=
EXTT8=
EXTT9=
PLAYORDER=
